<svg xmlns="http://www.w3.org/2000/svg" width="76" height="24" fill="none"><g filter="url(#a)"><path fill="url(#b)" fill-rule="evenodd" stroke="#FAFAFA" stroke-linejoin="round" stroke-width=".292" d="m12.765 17.392-3.075-.923-.97-3.397-2.978-.617L5 9.317l6.225-7.307-.003-.01.01.003.002-.003.001.004 3.075.922.97 3.397 2.978.618.742 3.137-6.225 7.308.003.01-.01-.003-.002.003-.001-.004zm-.859-3.046 4.25-4.937-3.08-.924-.982-3.435-4.25 4.937 3.08.924.982 3.435z" clip-rule="evenodd"/><path fill="url(#c)" stroke="#FAFAFA" stroke-linejoin="round" stroke-width=".292" d="m11.907 14.345-.982-3.434-3.08-.924.001-.003h-.002L5 9.318l.742 3.137 2.977.617.97 3.397 3.076.923.001.004.003-.003h.002l-.864-3.049z"/><path fill="url(#d)" d="m11.906 14.346 4.242-4.928 2.842.618.01.042-6.225 7.308.003.01-.006-.002-.865-3.05v.002z"/><path stroke="#FAFAFA" stroke-linejoin="round" stroke-width=".292" d="m12.765 17.392.001.004m3.382-7.978-4.242 4.928.001-.002.865 3.05.006.002-.003-.01L19 10.078l-.01-.042-2.842-.618z"/><path fill="url(#e)" d="M69.817 6.485c1.85 0 3.214 1.246 3.214 3.423 0 2.046-1.364 3.424-3.214 3.424-1.128 0-1.888-.46-2.295-1.102v3.646h-1.076V6.564h.932l.144 1.075c.446-.616 1.167-1.154 2.295-1.154zm-.105 5.889c1.325 0 2.217-1.01 2.217-2.466 0-1.456-.892-2.466-2.217-2.466-1.311 0-2.203 1.01-2.203 2.44 0 1.469.892 2.492 2.203 2.492z"/><path fill="url(#f)" d="M65.016 12.27h.341v.983h-.59c-.892 0-1.193-.38-1.206-1.036-.42.603-1.09 1.114-2.243 1.114-1.47 0-2.466-.734-2.466-1.954 0-1.338.931-2.085 2.689-2.085h1.967v-.46c0-.865-.616-1.39-1.666-1.39-.944 0-1.574.446-1.705 1.128h-1.075c.157-1.311 1.22-2.085 2.833-2.085 1.705 0 2.688.853 2.688 2.413v2.925c0 .354.132.446.433.446zm-1.508-1.745v-.328h-2.072c-.958 0-1.495.354-1.495 1.115 0 .655.563 1.101 1.455 1.101 1.338 0 2.112-.774 2.112-1.888z"/><path fill="url(#g)" d="m56.298 7.718.145-1.154h.93v6.36c0 1.929-1.022 3.03-3.318 3.03-1.705 0-2.898-.8-3.069-2.268h1.102c.184.839.931 1.311 2.046 1.311 1.404 0 2.164-.656 2.164-2.111v-.787c-.446.76-1.167 1.232-2.295 1.232-1.85 0-3.213-1.246-3.213-3.423 0-2.046 1.364-3.423 3.213-3.423 1.128 0 1.876.485 2.295 1.233zm-2.19 4.656c1.311 0 2.203-1.01 2.203-2.44 0-1.469-.892-2.492-2.203-2.492-1.325 0-2.217 1.01-2.217 2.466 0 1.456.892 2.466 2.217 2.466z"/><path fill="url(#h)" d="M46.506 13.332c-2.006 0-3.318-1.378-3.318-3.424 0-2.033 1.285-3.423 3.174-3.423s3.122 1.194 3.174 3.174c0 .144-.013.302-.026.46h-5.194v.09c.04 1.273.84 2.165 2.112 2.165.944 0 1.678-.498 1.901-1.364h1.089c-.262 1.338-1.364 2.322-2.912 2.322zm-2.124-4.106h4c-.105-1.154-.892-1.797-2.007-1.797-.984 0-1.889.709-1.993 1.797z"/><path fill="url(#i)" d="M39.166 6.485c1.508 0 2.701.826 2.701 3.043v3.725h-1.075v-3.66c0-1.39-.643-2.124-1.81-2.124-1.26 0-2.02.93-2.02 2.44v3.344h-1.075v-6.69h.93l.145.906c.394-.512 1.076-.984 2.204-.984z"/><path fill="url(#j)" d="M33.626 5.436a.675.675 0 0 1-.695-.695c0-.407.302-.696.695-.696.394 0 .695.289.695.696a.675.675 0 0 1-.695.695zm-.55 7.817v-6.69h1.075v6.69h-1.076z"/><path fill="url(#k)" d="M28.37 6.485c1.85 0 3.214 1.246 3.214 3.423 0 2.046-1.364 3.424-3.213 3.424-1.128 0-1.889-.46-2.295-1.102v3.646H25V6.564h.931l.145 1.075c.445-.616 1.167-1.154 2.295-1.154zm-.104 5.889c1.325 0 2.216-1.01 2.216-2.466 0-1.456-.892-2.466-2.216-2.466-1.312 0-2.204 1.01-2.204 2.44 0 1.469.892 2.492 2.204 2.492z"/></g><defs><linearGradient id="b" x1="12" x2="12" y1="2" y2="17.396" gradientUnits="userSpaceOnUse"><stop stop-color="#fff"/><stop offset="1" stop-color="#fff" stop-opacity=".7"/></linearGradient><linearGradient id="c" x1="8.886" x2="8.886" y1="9.318" y2="17.396" gradientUnits="userSpaceOnUse"><stop stop-color="#fff"/><stop offset="1" stop-color="#fff" stop-opacity=".7"/></linearGradient><linearGradient id="d" x1="15.453" x2="15.453" y1="9.418" y2="17.396" gradientUnits="userSpaceOnUse"><stop stop-color="#fff"/><stop offset="1" stop-color="#fff" stop-opacity=".7"/></linearGradient><linearGradient id="e" x1="69.739" x2="69.739" y1="15.876" y2="6.485" gradientUnits="userSpaceOnUse"><stop stop-color="#fff"/><stop offset="1" stop-color="#fff" stop-opacity=".7"/></linearGradient><linearGradient id="f" x1="62.105" x2="62.105" y1="13.332" y2="6.485" gradientUnits="userSpaceOnUse"><stop stop-color="#fff"/><stop offset="1" stop-color="#fff" stop-opacity=".7"/></linearGradient><linearGradient id="g" x1="54.082" x2="54.082" y1="15.955" y2="6.485" gradientUnits="userSpaceOnUse"><stop stop-color="#fff"/><stop offset="1" stop-color="#fff" stop-opacity=".7"/></linearGradient><linearGradient id="h" x1="46.362" x2="46.362" y1="13.332" y2="6.485" gradientUnits="userSpaceOnUse"><stop stop-color="#fff"/><stop offset="1" stop-color="#fff" stop-opacity=".7"/></linearGradient><linearGradient id="i" x1="38.877" x2="38.877" y1="13.253" y2="6.485" gradientUnits="userSpaceOnUse"><stop stop-color="#fff"/><stop offset="1" stop-color="#fff" stop-opacity=".7"/></linearGradient><linearGradient id="j" x1="33.626" x2="33.626" y1="13.253" y2="4.045" gradientUnits="userSpaceOnUse"><stop stop-color="#fff"/><stop offset="1" stop-color="#fff" stop-opacity=".7"/></linearGradient><linearGradient id="k" x1="28.292" x2="28.292" y1="15.876" y2="6.485" gradientUnits="userSpaceOnUse"><stop stop-color="#fff"/><stop offset="1" stop-color="#fff" stop-opacity=".7"/></linearGradient><filter id="a" width="74.999" height="23.968" x=".016" y="0" color-interpolation-filters="sRGB" filterUnits="userSpaceOnUse"><feFlood flood-opacity="0" result="BackgroundImageFix"/><feColorMatrix in="SourceAlpha" result="hardAlpha" values="0 0 0 0 0 0 0 0 0 0 0 0 0 0 0 0 0 0 127 0"/><feOffset dy="1.984"/><feGaussianBlur stdDeviation=".992"/><feComposite in2="hardAlpha" operator="out"/><feColorMatrix values="0 0 0 0 1 0 0 0 0 1 0 0 0 0 1 0 0 0 0.1 0"/><feBlend in2="BackgroundImageFix" result="effect1_dropShadow_919_8381"/><feBlend in="SourceGraphic" in2="effect1_dropShadow_919_8381" result="shape"/></filter></defs></svg>